<?xml version="1.0" encoding="UTF-8" standalone="no"?>
<!-- Created with Inkscape (http://www.inkscape.org/) -->

<svg
   width="27.781256mm"
   height="27.781256mm"
   viewBox="0 0 27.781256 27.781256"
   version="1.1"
   id="svg1"
   xmlns="http://www.w3.org/2000/svg"
   xmlns:svg="http://www.w3.org/2000/svg">
  <defs
     id="defs1" />
  <g
     id="layer1"
     transform="translate(-27.110401,-30.348423)">
    <g
       id="g12"
       transform="translate(-6.3430748,-2.8832158)">
      <g
         id="g10"
         style="fill:none;stroke:#ffffff">
        <g
           id="g5"
           style="fill:none;stroke:#ffffff">
          <g
             id="g2"
             transform="translate(0.04530537)"
             style="fill:none;stroke:#ffffff">
            <path
               id="rect1"
               style="fill:none;stroke:#ffffff;stroke-width:1.32292"
               d="m 38.042066,33.893097 h 18.513469 c 2.200728,0 3.972432,1.771705 3.972432,3.972432 v 18.51347 c 0,2.200727 -1.771704,3.972432 -3.972432,3.972432 H 38.042066 c -2.200728,0 -3.972433,-1.771705 -3.972433,-3.972432 v -18.51347 c 0,-2.200727 1.771705,-3.972432 3.972433,-3.972432 z" />
            <path
               id="path2"
               style="fill:none;stroke:#ffffff;stroke-width:1.32293;stroke-linejoin:round"
               transform="matrix(-0.57684636,0.57684636,-0.57684636,-0.57684636,74.169534,56.993143)"
               d="m 16.494468,51.786678 h -1.69396 -1.693961 l 0.84698,-1.467012 0.846981,-1.467013 0.84698,1.467013 z" />
            <path
               id="rect2"
               style="fill:none;stroke:#ffffff;stroke-width:1.32292"
               transform="scale(-1,1)"
               d="m -56.555537,33.893097 h 18.513469 c 2.200728,0 3.972433,1.771705 3.972433,3.972432 v 18.51347 c 0,2.200727 -1.771705,3.972432 -3.972433,3.972432 h -18.513469 c -2.200728,0 -3.972432,-1.771705 -3.972432,-3.972432 v -18.51347 c 0,-2.200727 1.771704,-3.972432 3.972432,-3.972432 z" />
          </g>
          <g
             id="g4"
             transform="matrix(-1,0,0,1,94.642908,0)"
             style="fill:none;stroke:#ffffff">
            <path
               id="rect3"
               style="fill:none;stroke:#ffffff;stroke-width:1.32292"
               d="m 38.042066,33.893097 h 18.513469 c 2.200728,0 3.972432,1.771705 3.972432,3.972432 v 18.51347 c 0,2.200727 -1.771704,3.972432 -3.972432,3.972432 H 38.042066 c -2.200728,0 -3.972433,-1.771705 -3.972433,-3.972432 v -18.51347 c 0,-2.200727 1.771705,-3.972432 3.972433,-3.972432 z" />
            <path
               id="path3"
               style="fill:none;stroke:#ffffff;stroke-width:1.32293;stroke-linejoin:round"
               transform="matrix(-0.57684636,0.57684636,-0.57684636,-0.57684636,74.169534,56.993143)"
               d="m 16.494468,51.786678 h -1.69396 -1.693961 l 0.84698,-1.467012 0.846981,-1.467013 0.84698,1.467013 z" />
            <path
               id="rect4"
               style="fill:none;stroke:#ffffff;stroke-width:1.32292"
               transform="scale(-1,1)"
               d="m -56.555537,33.893097 h 18.513469 c 2.200728,0 3.972433,1.771705 3.972433,3.972432 v 18.51347 c 0,2.200727 -1.771705,3.972432 -3.972433,3.972432 h -18.513469 c -2.200728,0 -3.972432,-1.771705 -3.972432,-3.972432 v -18.51347 c 0,-2.200727 1.771704,-3.972432 3.972432,-3.972432 z" />
          </g>
        </g>
        <g
           id="g9"
           transform="matrix(1,0,0,-1,0,94.244528)"
           style="fill:none;stroke:#ffffff">
          <g
             id="g6"
             transform="translate(0.04530537)"
             style="fill:none;stroke:#ffffff">
            <path
               id="rect5"
               style="fill:none;stroke:#ffffff;stroke-width:1.32292"
               d="m 38.042066,33.893097 h 18.513469 c 2.200728,0 3.972432,1.771705 3.972432,3.972432 v 18.51347 c 0,2.200727 -1.771704,3.972432 -3.972432,3.972432 H 38.042066 c -2.200728,0 -3.972433,-1.771705 -3.972433,-3.972432 v -18.51347 c 0,-2.200727 1.771705,-3.972432 3.972433,-3.972432 z" />
            <path
               id="path5"
               style="fill:none;stroke:#ffffff;stroke-width:1.32293;stroke-linejoin:round"
               transform="matrix(-0.57684636,0.57684636,-0.57684636,-0.57684636,74.169534,56.993143)"
               d="m 16.494468,51.786678 h -1.69396 -1.693961 l 0.84698,-1.467012 0.846981,-1.467013 0.84698,1.467013 z" />
            <path
               id="rect6"
               style="fill:none;stroke:#ffffff;stroke-width:1.32292"
               transform="scale(-1,1)"
               d="m -56.555537,33.893097 h 18.513469 c 2.200728,0 3.972433,1.771705 3.972433,3.972432 v 18.51347 c 0,2.200727 -1.771705,3.972432 -3.972433,3.972432 h -18.513469 c -2.200728,0 -3.972432,-1.771705 -3.972432,-3.972432 v -18.51347 c 0,-2.200727 1.771704,-3.972432 3.972432,-3.972432 z" />
          </g>
          <g
             id="g8"
             transform="matrix(-1,0,0,1,94.642908,0)"
             style="fill:none;stroke:#ffffff">
            <path
               id="rect7"
               style="fill:none;stroke:#ffffff;stroke-width:1.32292"
               d="m 38.042066,33.893097 h 18.513469 c 2.200728,0 3.972432,1.771705 3.972432,3.972432 v 18.51347 c 0,2.200727 -1.771704,3.972432 -3.972432,3.972432 H 38.042066 c -2.200728,0 -3.972433,-1.771705 -3.972433,-3.972432 v -18.51347 c 0,-2.200727 1.771705,-3.972432 3.972433,-3.972432 z" />
            <path
               id="path7"
               style="fill:none;stroke:#ffffff;stroke-width:1.32293;stroke-linejoin:round"
               transform="matrix(-0.57684636,0.57684636,-0.57684636,-0.57684636,74.169534,56.993143)"
               d="m 16.494468,51.786678 h -1.69396 -1.693961 l 0.84698,-1.467012 0.846981,-1.467013 0.84698,1.467013 z" />
            <path
               id="rect8"
               style="fill:none;stroke:#ffffff;stroke-width:1.32292"
               transform="scale(-1,1)"
               d="m -56.555537,33.893097 h 18.513469 c 2.200728,0 3.972433,1.771705 3.972433,3.972432 v 18.51347 c 0,2.200727 -1.771705,3.972432 -3.972433,3.972432 h -18.513469 c -2.200728,0 -3.972432,-1.771705 -3.972432,-3.972432 v -18.51347 c 0,-2.200727 1.771704,-3.972432 3.972432,-3.972432 z" />
          </g>
        </g>
      </g>
      <path
         id="path10"
         style="fill:#ffffff;stroke-width:1.98305;stroke-linejoin:round"
         d="m 37.014486,36.153679 a 0.63427508,0.63427508 0 0 1 -0.634275,0.634275 0.63427508,0.63427508 0 0 1 -0.634275,-0.634275 0.63427508,0.63427508 0 0 1 0.634275,-0.634275 0.63427508,0.63427508 0 0 1 0.634275,0.634275 z" />
      <path
         id="circle10"
         style="fill:#ffffff;stroke-width:1.98305;stroke-linejoin:round"
         d="m 58.851671,36.244289 a 0.63427508,0.63427508 0 0 1 -0.634275,0.634275 0.63427508,0.63427508 0 0 1 -0.634275,-0.634275 0.63427508,0.63427508 0 0 1 0.634275,-0.634275 0.63427508,0.63427508 0 0 1 0.634275,0.634275 z" />
      <path
         id="circle11"
         style="fill:#ffffff;stroke-width:1.98305;stroke-linejoin:round"
         d="m 58.987589,58.081474 a 0.63427508,0.63427508 0 0 1 -0.634276,0.634275 0.63427508,0.63427508 0 0 1 -0.634275,-0.634275 0.63427508,0.63427508 0 0 1 0.634275,-0.634275 0.63427508,0.63427508 0 0 1 0.634276,0.634275 z" />
      <path
         id="circle12"
         style="fill:#ffffff;stroke-width:1.98305;stroke-linejoin:round"
         d="M 36.923875,58.126781 A 0.63427508,0.63427508 0 0 1 36.2896,58.761057 0.63427508,0.63427508 0 0 1 35.655325,58.126781 0.63427508,0.63427508 0 0 1 36.2896,57.492506 0.63427508,0.63427508 0 0 1 36.923875,58.126781 Z" />
    </g>
  </g>
</svg>
